<svg xmlns="http://www.w3.org/2000/svg" xmlns:xlink="http://www.w3.org/1999/xlink" width="445" height="341.839" viewBox="0 0 445 341.839"><defs><style>.a,.h,.i{fill:#0990b1;}.a,.c,.r{opacity:0.1;}.b{fill:#c8cad7;}.d{fill:#474157;}.e{fill:#4c4c78;}.f{fill:#fff;}.g{fill:#ededf4;}.i,.j,.s{opacity:0.5;}.j,.t{fill:#dce0ed;}.k{fill:url(#a);}.l{fill:#65617d;}.m{fill:#a27772;}.n{fill:#fbbebe;}.o{fill:#ff748e;}.p{opacity:0.05;}.q{fill:#7c5c5c;}.u{fill:#ffd037;}.v{fill:#a8a8a8;}.w{opacity:0.2;}</style><linearGradient id="a" x1="0.5" y1="1" x2="0.5" gradientUnits="objectBoundingBox"><stop offset="0" stop-color="gray" stop-opacity="0.251"/><stop offset="0.54" stop-color="gray" stop-opacity="0.122"/><stop offset="1" stop-color="gray" stop-opacity="0.102"/></linearGradient></defs><g transform="translate(0 -0.05)"><path class="a" d="M525.658,93.82A91.053,91.053,0,0,0,508,70.042L263.112,68,464.74,44.063a132.866,132.866,0,0,0-40.908-6.86C404.421,23.951,379.473,16,352.262,16c-24.416,0-46.993,6.415-65.4,17.3a131.335,131.335,0,0,0-52.419-10.676c-54.412,0-99.751,31.859-109.923,74.11Z" transform="translate(-89.267 -15.95)"/><path class="a" d="M480,252.112a77.58,77.58,0,0,0-7.632-33.442L47.94,256.334A82.518,82.518,0,0,0,38,277.564l131.433,16.563L35,306.2c4.044,47.832,52.545,85.6,111.793,85.6,29.823,0,56.921-9.569,77-25.176,20.143,15.9,47.5,25.68,77.647,25.68,44.724,0,83.329-21.529,101.306-52.656,36.065-9.68,64.08-33.977,73.669-64.375L310.2,253.478H480Z" transform="translate(-35 -138.807)"/><ellipse class="a" cx="114.196" cy="5.096" rx="114.196" ry="5.096" transform="translate(82.699 331.697)"/><path class="b" d="M566.907,764.14v3.08H475.84v-2.5a29.929,29.929,0,0,0,2.06-55.278h88.39a29.929,29.929,0,0,0,.618,54.7Z" transform="translate(-302.235 -436.31)"/><path class="c" d="M569.466,709.44a29.972,29.972,0,0,0-16.54,19.844H497.62a29.98,29.98,0,0,0-16.54-19.844Z" transform="translate(-305.411 -436.31)"/><path class="b" d="M211,669.6v17.288c0,9.546,6.986,17.284,15.607,17.284H494.56c8.62,0,15.606-7.738,15.606-17.284V669.6Z" transform="translate(-141.69 -412.159)"/><path class="c" d="M566.907,843.472v3.079H475.84v-2.5a29.922,29.922,0,0,0,7.022-3.741h78.462a30.078,30.078,0,0,0,5.584,3.162Z" transform="translate(-302.235 -515.642)"/><rect class="b" width="151.257" height="9.124" rx="4.562" transform="translate(143.511 325.629)"/><path class="d" d="M510.166,164.583A15.6,15.6,0,0,0,494.56,149H226.618A15.6,15.6,0,0,0,211,164.583v192.8H510.166Z" transform="translate(-141.69 -96.574)"/><path class="e" d="M514.607,194.423V360.085a7.679,7.679,0,0,1-7.683,7.683H239.443a7.679,7.679,0,0,1-7.683-7.683V194.423a7.683,7.683,0,0,1,7.683-7.683H506.9a7.683,7.683,0,0,1,7.7,7.683Z" transform="translate(-154.275 -119.452)"/><circle class="f" cx="3.603" cy="3.603" r="3.603" transform="translate(215.293 56.242)"/><circle class="f" cx="8.884" cy="8.884" r="8.884" transform="translate(210.012 266.566)"/><path class="f" d="M291.528,196.5V373.685H239.443A7.679,7.679,0,0,1,231.76,366V200.34l.28-1.044.748-2.8Z" transform="translate(-154.275 -125.368)"/><path class="e" d="M263.211,187.65V203.6H196.76V188.694l.28-1.044Z" transform="translate(-119.275 -113.722)"/><path class="b" d="M514.607,194.429H231.76a7.679,7.679,0,0,1,7.683-7.679H506.9a7.679,7.679,0,0,1,7.7,7.679Z" transform="translate(-154.275 -119.458)"/><circle class="g" cx="1.922" cy="1.922" r="1.922" transform="translate(83.247 69.21)"/><circle class="g" cx="1.922" cy="1.922" r="1.922" transform="translate(89.008 69.21)"/><circle class="g" cx="1.922" cy="1.922" r="1.922" transform="translate(94.769 69.21)"/><rect class="h" width="39.904" height="3.674" transform="translate(87.417 80.949)"/><rect class="i" width="39.904" height="3.674" transform="translate(87.417 98.868)"/><rect class="i" width="39.904" height="3.674" transform="translate(87.417 111.536)"/><rect class="i" width="39.904" height="3.674" transform="translate(87.417 124.205)"/><rect class="i" width="39.904" height="3.674" transform="translate(87.417 136.87)"/><rect class="i" width="39.904" height="3.674" transform="translate(87.417 149.538)"/><rect class="i" width="39.904" height="3.674" transform="translate(87.417 162.207)"/><rect class="i" width="39.904" height="3.674" transform="translate(87.417 174.872)"/><rect class="j" width="176.823" height="0.591" transform="translate(169.923 94.461)"/><rect class="j" width="176.823" height="0.591" transform="translate(169.923 108.177)"/><rect class="j" width="176.823" height="0.591" transform="translate(169.923 121.897)"/><rect class="j" width="176.823" height="0.591" transform="translate(169.923 135.614)"/><rect class="j" width="176.823" height="0.591" transform="translate(169.923 149.33)"/><path class="i" d="M607.983,308.115H430.94V281.14l16.237,8,16.8,2.276,14.744-4.446,17.788-13.8,8.947-5.167L512,266.75l6.258.335,10.294,5.084,13.988,8.912,10.979,1.414,8.707-3,18.45-15.114,9.42-3.359,9.857,1.524,8.03,4.635Z" transform="translate(-261.234 -158.199)"/><path class="h" d="M496.8,307.243c-15.941,0-30.677-9.751-30.859-9.877l.437-.654c.228.154,22.9,15.158,42.173,7.64,7.033-2.737,12.027-7,16.878-11.121,5.053-4.3,9.825-8.372,16.327-10.137a24.426,24.426,0,0,1,21.809,4.9c5.293,4.352,15.839,11.342,26.98,9.251,5.679-1.063,10.467-5.214,15.536-9.6,9.7-8.427,19.769-17.127,37.132-4.635l-.461.638c-16.875-12.125-26.684-3.627-36.167,4.592-5.151,4.466-10.018,8.664-15.906,9.786-11.46,2.146-22.226-4.978-27.625-9.416a23.646,23.646,0,0,0-21.1-4.745c-6.336,1.717-11.026,5.726-16.024,9.971-4.887,4.163-9.944,8.471-17.091,11.259A33.034,33.034,0,0,1,496.8,307.243Z" transform="translate(-296.234 -174.016)"/><circle class="h" cx="4.383" cy="4.383" r="4.383" transform="translate(250.626 104.089)"/><path class="k" d="M320.155,484.217a69.562,69.562,0,0,0-8.27-4.308l-.122-.087a4.986,4.986,0,0,1-1.512-1.91c0-.138,0-.276,0-.394v.039c.1-1.827,1.394-3.485,2.627-4.934q1.575-1.855,3.15-3.706a3.62,3.62,0,0,0,.811-1.315,2.95,2.95,0,0,0,.087-.788v-.323c0-.921-.043-1.843-.075-2.757-.032-.807-.236-1.819-1.044-1.969-.417-.087-.969.063-1.181-.3a.662.662,0,0,1-.055-.477v.035a.206.206,0,0,1,0-.043,10.888,10.888,0,0,0,.3-1.894,2.718,2.718,0,0,0-.13-.957c-.469-1.335-2.071-1.882-3.489-2.134s-3.009-.469-3.9-1.575a12.891,12.891,0,0,0-.788-1.067,3.1,3.1,0,0,0-1.453-.717,8.16,8.16,0,0,0-5.269.461,4.745,4.745,0,0,1-2.127.673c-.752-.043-1.449-.591-2.221-.721a3.171,3.171,0,0,0-3.052,1.788,4.331,4.331,0,0,0-.563,2.107v.122h0a3.1,3.1,0,0,0,.811,2.15c.536.559,1.335.941,1.575,1.674.091.3.071.622.15.922a.424.424,0,0,0,.035.114l-.043.051a9.361,9.361,0,0,0-1.969,5.757,9.554,9.554,0,0,0,6.695,9.058v.284a4.072,4.072,0,0,1-1.3,3.17l-8.5,3.41s-5.119-.606-6.962,6.872a12.664,12.664,0,0,0-.315,3.792,11.132,11.132,0,0,1-1.4,5.683c-2.1,4.111-1.622,13.543,2.67,14.476,4.052.882,5.639.516,5.8.473v.165c-.067,1.772-.709,17.036-3.044,18.9-.65.508-.528.855,0,1.087v.276c-.071,1.118-.433,5.368-2,7.789-1.8,2.792-1.591,18.938-1.591,18.938l-1.237,9.526s.76,5.883,0,6.911c-.681.918-1.575,22.687-1.78,27.4H279.4a2.3,2.3,0,0,0-1.835,1.118,32.474,32.474,0,0,1-4.521,4.635c-.76,1.083-3.58,2.119-5.068,2.607a3.256,3.256,0,0,0-.575.248,3.025,3.025,0,0,0-1.28,1.347,1.441,1.441,0,0,0-.134,1.122c.394.933,8.3,1.575,10.3.654,1.575-.732,7.813-1.7,10.4-2.079a2.135,2.135,0,0,0,1.851-1.851,1.221,1.221,0,0,0-.236-.925h0a8.367,8.367,0,0,1-.866-3.387,2.3,2.3,0,0,0,.583-.346,24.845,24.845,0,0,1,1.429-9.995c1.906-5.041,2.481-14.382,2-20.454,0,0,5.816-25.034,10.4-27.369h0c.071.087,2.292,2.938,2.576,11.767a35.683,35.683,0,0,0,3.525,14.85s-1.43,15.224,0,20.923l-1.878,8.975a2.91,2.91,0,0,1-.224-.2s.055.252.134.65l-.039.189.079.02a17.366,17.366,0,0,1,.394,4.229c-.075.658-.256,1.552-.394,2.434-.2,1.382-.252,2.725.477,3.017,1.181.48,8.2,1.138,9.4-.394a2.209,2.209,0,0,0,.347-2.308,2.364,2.364,0,0,0-.346-.587s-1.863-3.044-1.335-5.19a1.575,1.575,0,0,0-.224-1.229,63.431,63.431,0,0,1,1.634-10.078c1.181-4.493,3.71-14.346,1.859-20.828h0c-.071-.252-.15-.5-.236-.748a27.959,27.959,0,0,1-1.051-10.928,22.214,22.214,0,0,1,0-9.526c1.134-5.226,1.934-10.345,1.934-10.345a65.631,65.631,0,0,0,.079-11.149l-.035-.272.3-.067s-1.618-7.191-2.193-11.767c-.134-1.083-.311-2.449-.5-3.91a10.326,10.326,0,0,0,1.556-.394c5.151-1.776,6.77-17.843,6.77-17.843v-5.1S326.164,487.686,320.155,484.217ZM281.787,608.265l-.252-.134h0Z" transform="translate(-174.99 -280.495)"/><path class="l" d="M338.414,698.322c2.233,6.423-.394,16.847-1.575,21.5a65.254,65.254,0,0,0-1.575,10.239,21.657,21.657,0,0,1-8.191-.189l1.969-9.585c-1.394-5.679,0-20.852,0-20.852a36.442,36.442,0,0,1-3.442-14.8c-.276-8.794-2.442-11.637-2.512-11.727h0c-4.5,2.339-10.164,27.279-10.164,27.279.465,6.049-.094,15.358-1.969,20.387a25.223,25.223,0,0,0-1.4,9.959,3.073,3.073,0,0,1-2.532.484,17.349,17.349,0,0,1-5.844-2.721s1.024-27.173,1.768-28.2,0-6.888,0-6.888l1.209-9.495s-.185-16.1,1.575-18.9c1.528-2.414,1.878-6.651,1.949-7.762v-.276l2.694-3.225s26.066-1.969,28.019,0a5.5,5.5,0,0,1,.953,2.946,66.98,66.98,0,0,1-.079,11.109s-.788,5.119-1.9,10.329a22.6,22.6,0,0,0,0,9.495,28.354,28.354,0,0,0,1.044,10.9Z" transform="translate(-196.357 -401.895)"/><path class="m" d="M376.478,854.514c-1.162,1.536-8,.886-9.168.394-.713-.3-.658-1.63-.465-3.009.122-.878.3-1.772.37-2.422a22.174,22.174,0,0,0-.555-5.076s1.536,1.63,1.906,0a1.772,1.772,0,0,1,1.327-1.26,3.481,3.481,0,0,1,2.418.15c1.209.524,3.225,1.642,2.863,3.15-.512,2.138,1.3,5.171,1.3,5.171a2.334,2.334,0,0,1,.339.587A2.233,2.233,0,0,1,376.478,854.514Z" transform="translate(-236.051 -517.268)"/><path class="c" d="M376.569,868.225c-1.162,1.536-8,.886-9.168.394-.713-.3-.658-1.63-.465-3.009a7.888,7.888,0,0,0,4.064.437,11.4,11.4,0,0,1,1.465-.047,33.49,33.49,0,0,0,4.442-.087,2.233,2.233,0,0,1-.339,2.312Z" transform="translate(-236.142 -530.979)"/><path class="c" d="M321.919,728.587c.465,6.049-.095,15.358-1.969,20.387a25.223,25.223,0,0,0-1.4,9.959,3.072,3.072,0,0,1-2.532.484c.563-3.938,2.954-20.844,4.489-34.206a55.932,55.932,0,0,1,9.912-25.692l1.63,1.792C327.582,703.647,321.919,728.587,321.919,728.587Z" transform="translate(-205.353 -430.296)"/><path class="n" d="M355.3,507.708l-1.138,5.584-5.564,9.357-6.864-2.934s-9.333-9.774-3.469-11.168a5.169,5.169,0,0,0,1.949-.866,4.038,4.038,0,0,0,1.52-3.367,10.352,10.352,0,0,0-.953-4.005l12.007-3.769a19.108,19.108,0,0,0-.862,4.864c-.091,3.269,1.122,4.883,2.119,5.651a3.568,3.568,0,0,0,1.256.654Z" transform="translate(-217.662 -307.251)"/><path class="c" d="M359.637,496.54a19.106,19.106,0,0,0-.862,4.864,9.491,9.491,0,0,1-10.192,2.91,10.353,10.353,0,0,0-.953-4Z" transform="translate(-224.515 -307.251)"/><path class="n" d="M352.379,478.025a9.471,9.471,0,1,1-2.774-6.721A9.495,9.495,0,0,1,352.379,478.025Z" transform="translate(-215.882 -290.271)"/><path class="c" d="M355.3,523.894l-1.138,5.584-5.564,9.357-6.864-2.934s-9.333-9.774-3.469-11.168a5.17,5.17,0,0,0,1.949-.866c-1.059,2.91,3.312,8.963,3.312,8.963.508.748,1.678.28,1.678.28,2.812-.425,8-8.522,8.841-9.869A3.567,3.567,0,0,0,355.3,523.894Z" transform="translate(-217.662 -323.436)"/><path class="c" d="M349.388,656.533c-1.654.394-10.8,2.4-14.264,1.894-3.816-.559-11.239-.929-11.239-.929s-4.726.252-6.175-.394v-.276L320.4,653.6s26.066-1.969,28.019,0A5.205,5.205,0,0,1,349.388,656.533Z" transform="translate(-206.377 -401.931)"/><path class="o" d="M322.265,533.224s-4.911-6.8-3.06-9.451l-8.3,3.4s-4.993-.606-6.793,6.844a13,13,0,0,0-.311,3.784,11.259,11.259,0,0,1-1.366,5.659c-2.048,4.1-1.575,13.5,2.607,14.429s5.679.465,5.679.465-.559,17.036-2.977,18.989,6.171,1.489,6.171,1.489,7.419.394,11.235.933,14.52-1.969,14.52-1.969-1.575-7.167-2.142-11.727S335.67,551.8,335.67,551.8l9.495-12.862s1.674-7.774-4.19-11.216a67.247,67.247,0,0,0-8.073-4.292s-5.907,9.6-8.963,10.062C323.939,533.5,322.773,533.972,322.265,533.224Z" transform="translate(-196.405 -323.551)"/><path class="c" d="M324.509,555.16a13.951,13.951,0,0,0,.469,4.281c.559,1.209,2.6,7.912,2.6,7.912H322.93s2.512-2.7,2.327-4S324.509,555.16,324.509,555.16Z" transform="translate(-209.542 -342.786)"/><path class="n" d="M339.095,593.917s-10.278-2.512-11.235-4.651-3.6-6.935-3.6-6.935l1.083-1.461,5,3.938s5.958,4.726,8.75,5.214S339.095,593.917,339.095,593.917Z" transform="translate(-210.348 -358.371)"/><path class="p" d="M339.095,593.917s-10.278-2.512-11.235-4.651-3.6-6.935-3.6-6.935l1.083-1.461,5,3.938s5.958,4.726,8.75,5.214S339.095,593.917,339.095,593.917Z" transform="translate(-210.348 -358.371)"/><path class="n" d="M355.912,583.2v5.576h-.9a26.086,26.086,0,0,0-12.657,3.276l-1.678.93-.453.252-2.887-6.5,2.7-2.422h.138a16.283,16.283,0,0,0,4.726-.106c1.209-.406,2.579-1.63,5.962-.764,1.67.425,3.091,2.3,4.726,1.713Z" transform="translate(-218.277 -359.747)"/><path class="c" d="M376.108,547.773l1.863,2.1v5.072s-1.575,16.012-6.608,17.78-14-1.024-14-1.024-2.32-6.143-1.237-6.517,9.585-2.615,9.585-2.615-.122-9.392,1.741-12.184c0,0-1.209-8.75,2.977-8.935S376.108,547.773,376.108,547.773Z" transform="translate(-229.491 -334.469)"/><path class="o" d="M376.8,547.773l1.863,2.1v5.072s-1.575,16.012-6.612,17.78-14-1.024-14-1.024-2.319-6.143-1.237-6.517,9.581-2.615,9.581-2.615-.118-9.392,1.745-12.184c0,0-1.213-8.75,2.977-8.935S376.8,547.773,376.8,547.773Z" transform="translate(-229.909 -334.469)"/><path class="c" d="M352.769,482.035a3.667,3.667,0,0,0-.213-1.812,1.39,1.39,0,0,0-1.473-.851c-.788.185-1.142,1.221-1.922,1.469a1.525,1.525,0,0,1-1.693-.87,4.45,4.45,0,0,1-.323-2.024v-2.335a3.847,3.847,0,0,0-.551-2.426,4.306,4.306,0,0,0-3.19-1.154,2.705,2.705,0,0,0-1.823.732,2.363,2.363,0,0,1-1.918.685,1.658,1.658,0,0,1-1.335-1.158.094.094,0,0,1,0-.031,9.495,9.495,0,1,1,14.122,12.6,26.291,26.291,0,0,0,.319-2.827Z" transform="translate(-218.875 -290.249)"/><path class="q" d="M335.865,464.277a1.67,1.67,0,0,1-1.339-1.158c-.075-.3-.055-.622-.146-.918-.217-.732-1-1.115-1.52-1.67a3.744,3.744,0,0,1-.24-4.281,3.093,3.093,0,0,1,2.981-1.78c.752.134,1.4.669,2.166.717a4.4,4.4,0,0,0,2.075-.669,7.813,7.813,0,0,1,5.143-.457,2.977,2.977,0,0,1,1.418.713,12.048,12.048,0,0,1,.756,1.063c.866,1.107,2.422,1.323,3.8,1.575s2.95.788,3.4,2.13a5.589,5.589,0,0,1-.161,2.757.788.788,0,0,0,.035.571c.217.358.756.209,1.181.291.788.165.984,1.181,1.012,1.969q.055,1.37.075,2.757a3.543,3.543,0,0,1-.079,1.02,3.613,3.613,0,0,1-.788,1.28l-3.076,3.694c-1.363,1.638-2.808,3.544-2.536,5.659a1.313,1.313,0,0,1-1.622-.945,4.173,4.173,0,0,1,.1-2.1,25.74,25.74,0,0,0,.484-3.635,3.678,3.678,0,0,0-.213-1.815,1.394,1.394,0,0,0-1.477-.851c-.788.185-1.138,1.221-1.918,1.469a1.521,1.521,0,0,1-1.693-.87,4.5,4.5,0,0,1-.323-2.024v-2.335a3.847,3.847,0,0,0-.551-2.426,4.3,4.3,0,0,0-3.19-1.154,2.705,2.705,0,0,0-1.823.732,2.363,2.363,0,0,1-1.942.685Z" transform="translate(-215.081 -281.356)"/><path class="c" d="M347.15,554.57l2.918,11.972S352.364,566.53,347.15,554.57Z" transform="translate(-224.224 -342.428)"/><path class="c" d="M368.335,549.48s-3.82,6.254-2.327,12.716l.709.051S365.448,559.254,368.335,549.48Z" transform="translate(-235.445 -339.343)"/><path class="c" d="M378.59,638.8s4.686-1.552,5.029,2.048C383.619,640.846,382.733,638.377,378.59,638.8Z" transform="translate(-243.282 -393.285)"/><path class="c" d="M331.876,586.83s-.929,6.518.744,9.125a20.456,20.456,0,0,1-8.191,1.115l-.559-10.239Z" transform="translate(-210.112 -361.984)"/><path class="c" d="M340.68,594.788l-.453.252-2.887-6.5,2.7-2.422h.138C340.136,586.435,339.384,592.031,340.68,594.788Z" transform="translate(-218.277 -361.554)"/><path class="o" d="M327.724,586.12s-.929,6.518.744,9.125a20.456,20.456,0,0,1-8.191,1.114L317.02,586.12Z" transform="translate(-205.959 -361.554)"/><path class="m" d="M289.779,850.238a2.1,2.1,0,0,1-1.808,1.843c-2.524.394-8.616,1.339-10.152,2.071-1.969.933-9.68.28-10.054-.65a1.476,1.476,0,0,1,.134-1.122,3.068,3.068,0,0,1,1.808-1.575c1.457-.488,4.206-1.516,4.946-2.6a31.656,31.656,0,0,0,4.4-4.619,2.229,2.229,0,0,1,1.792-1.114c.815-.039,1.721.374,2.1,2.158,0,0,4.466,2.548,5.675.315,0,0,.185,3.43.925,4.371h0A1.232,1.232,0,0,1,289.779,850.238Z" transform="translate(-176.068 -516.954)"/><path class="c" d="M289.779,860.759a2.1,2.1,0,0,1-1.808,1.843c-2.524.394-8.616,1.339-10.152,2.071-1.969.933-9.68.28-10.054-.65a1.477,1.477,0,0,1,.134-1.122,2.981,2.981,0,0,1,1.248-1.339c1.26.835,4.056,1.654,10.207.693,5.868-.918,8.77-1.815,10.188-2.426h0A1.233,1.233,0,0,1,289.779,860.759Z" transform="translate(-176.068 -527.475)"/><g class="r" transform="translate(116.984 176.876)"><path d="M388.209,472.348a.2.2,0,0,0,0-.047,8.487,8.487,0,0,0,.287-2.111,13.349,13.349,0,0,1-.287,1.693A1.032,1.032,0,0,0,388.209,472.348Z" transform="translate(-366.081 -468.154)"/><path d="M348.757,477.925a2.757,2.757,0,0,1,.228,1.063,3.193,3.193,0,0,0-.228-1.481,1.4,1.4,0,0,0-1.477-.855c-.788.185-1.138,1.225-1.918,1.473a1.528,1.528,0,0,1-1.693-.874,4.4,4.4,0,0,1-.323-2.024V472.9a3.847,3.847,0,0,0-.551-2.426,4.312,4.312,0,0,0-3.194-1.158,2.689,2.689,0,0,0-1.819.736,2.363,2.363,0,0,1-1.918.681,1.65,1.65,0,0,1-1.339-1.158c-.079-.3-.055-.618-.146-.918-.217-.732-1-1.11-1.52-1.666a3.064,3.064,0,0,1-.788-1.969,3.186,3.186,0,0,0,.788,2.386c.524.555,1.3.937,1.52,1.67.091.3.067.618.146.918a1.666,1.666,0,0,0,1.339,1.158,2.363,2.363,0,0,0,1.918-.685,2.729,2.729,0,0,1,1.815-.729,4.3,4.3,0,0,1,3.194,1.158,3.866,3.866,0,0,1,.551,2.426v2.331a4.406,4.406,0,0,0,.323,2.028,1.525,1.525,0,0,0,1.693.87c.788-.248,1.122-1.284,1.918-1.473A1.406,1.406,0,0,1,348.757,477.925Z" transform="translate(-332.06 -465.02)"/><path d="M383.989,490.353a3.663,3.663,0,0,1-.788,1.284q-1.544,1.843-3.076,3.69c-1.292,1.556-2.662,3.355-2.564,5.34.095-1.819,1.363-3.473,2.564-4.919l3.076-3.694a3.647,3.647,0,0,0,.788-1.28,3.546,3.546,0,0,0,.079-1.024A2.554,2.554,0,0,1,383.989,490.353Z" transform="translate(-359.64 -480.011)"/><path d="M373.351,515.12a2.2,2.2,0,0,1-.095-.5,2.493,2.493,0,0,0,.095.918,1.312,1.312,0,0,0,1.622.945c0-.138-.028-.276-.031-.394A1.328,1.328,0,0,1,373.351,515.12Z" transform="translate(-357.028 -495.087)"/></g><path class="c" d="M295,847.42s.973,1.709,4.5.2" transform="translate(-192.611 -519.952)"/><path class="c" d="M370.65,848.46s3.044,3.58,6.876,1.181" transform="translate(-238.469 -520.583)"/><path class="c" d="M389.706,740.94s-2.15,1.343-2.221,2.111,1.111-.559,1.111-.559Z" transform="translate(-248.673 -455.405)"/><path class="c" d="M389.343,767.08a4.462,4.462,0,0,1-2.646,1.032c-1.607.071-1.473,2.166-.421,1.536A26.44,26.44,0,0,0,389.343,767.08Z" transform="translate(-247.463 -471.251)"/><path class="c" d="M393.441,770.49s-1.032,5.064-1.871,4.088" transform="translate(-251.151 -473.318)"/><g class="s" transform="translate(185.549 180.649)"><rect class="t" width="25.991" height="5.513"/><rect class="t" width="25.991" height="5.513" transform="translate(59.681)"/><rect class="t" width="25.991" height="5.513" transform="translate(119.362)"/></g><ellipse class="a" cx="10.605" cy="1.792" rx="10.605" ry="1.792" transform="translate(364.585 313.791)"/><ellipse class="a" cx="10.605" cy="1.792" rx="10.605" ry="1.792" transform="translate(34.769 336.415)"/><ellipse class="h" cx="15.835" cy="2.678" rx="15.835" ry="2.678" transform="translate(336.144 332.107)"/><path class="h" d="M922.868,843.655a4.585,4.585,0,0,0,1.508-2.28,2.023,2.023,0,0,0-1.052-2.319c-.969-.37-2,.3-2.792.981s-1.682,1.449-2.709,1.307a4.135,4.135,0,0,0,1.276-3.863,1.607,1.607,0,0,0-.354-.788c-.54-.575-1.512-.331-2.158.122-2.048,1.441-2.619,4.222-2.631,6.726a12.646,12.646,0,0,1-.036-2.757,2.848,2.848,0,0,0-1.04-2.453,3.15,3.15,0,0,0-1.575-.37,3.273,3.273,0,0,0-2.575.729,2.538,2.538,0,0,0,.1,3.15,10.25,10.25,0,0,0,2.666,2.134,5.959,5.959,0,0,1,1.906,1.815,1.893,1.893,0,0,1,.138.327h5.773A16.183,16.183,0,0,0,922.868,843.655Z" transform="translate(-564.344 -513.246)"/><path class="h" d="M142.282,807.19s2.166,2.831-1,7.089-5.769,7.876-4.726,10.542c0,0,4.773-7.935,8.664-8.045S146.555,811.963,142.282,807.19Z" transform="translate(-96.424 -495.565)"/><path class="c" d="M142.478,807.19a3.543,3.543,0,0,1,.445.89c3.788,4.45,5.8,8.6,2.162,8.707-3.391.1-7.459,6.163-8.435,7.695a3.635,3.635,0,0,0,.114.35s4.773-7.935,8.664-8.045S146.751,811.963,142.478,807.19Z" transform="translate(-96.62 -495.565)"/><path class="u" d="M160.9,815.357c0,1-.11,1.8-.248,1.8s-.248-.788-.248-1.8.138-.528.276-.528S160.9,814.361,160.9,815.357Z" transform="translate(-111.017 -500.125)"/><path class="u" d="M162.545,818.316c-.874.477-1.638.764-1.7.642s.587-.607,1.461-1.083.532-.13.595,0S163.419,817.839,162.545,818.316Z" transform="translate(-111.283 -501.895)"/><path class="h" d="M114.956,807.19s-2.166,2.831,1,7.089,5.769,7.876,4.726,10.542c0,0-4.769-7.935-8.664-8.045S110.684,811.963,114.956,807.19Z" transform="translate(-80.522 -495.565)"/><path class="c" d="M114.943,807.19a3.544,3.544,0,0,0-.445.89c-3.788,4.45-5.8,8.6-2.162,8.707,3.391.1,7.459,6.163,8.435,7.695a2.819,2.819,0,0,1-.118.35s-4.769-7.935-8.664-8.045S110.67,811.963,114.943,807.19Z" transform="translate(-80.509 -495.565)"/><path class="u" d="M112.22,815.357c0,1,.114,1.8.252,1.8s.248-.788.248-1.8-.138-.528-.276-.528S112.22,814.361,112.22,815.357Z" transform="translate(-81.81 -500.125)"/><path class="u" d="M107.9,818.316c.874.477,1.634.764,1.7.642s-.587-.607-1.461-1.083-.532-.13-.6,0S107.025,817.839,107.9,818.316Z" transform="translate(-78.868 -501.895)"/><path class="v" d="M114,846.016s6.049-.189,7.876-1.485,9.306-2.851,9.759-.768,9.089,10.353,2.26,10.408-15.866-1.063-17.686-2.17S114,846.016,114,846.016Z" transform="translate(-82.889 -517.119)"/><path class="w" d="M133.983,858.469c-6.829.055-15.87-1.063-17.69-2.17-1.382-.847-1.938-3.875-2.119-5.269h-.2s.394,4.875,2.205,5.986,10.857,2.225,17.686,2.17c1.969,0,2.65-.717,2.615-1.756C136.2,858.067,135.448,858.457,133.983,858.469Z" transform="translate(-82.871 -522.141)"/><path class="h" d="M495.862,544.825a14.307,14.307,0,0,1,14.6-14.232h.114V526.93h-.114A17.972,17.972,0,0,0,492.2,544.825a18.218,18.218,0,0,0,6.259,13.745l2.594-2.6A14.571,14.571,0,0,1,495.862,544.825Z" transform="translate(-312.152 -325.673)"/><path class="i" d="M521.129,526.94V530.6a14.6,14.6,0,1,1-9.526,25.743l-2.6,2.6a18.257,18.257,0,1,0,12.121-32Z" transform="translate(-322.336 -325.679)"/><path class="i" d="M822.644,530.122a14.307,14.307,0,0,1,14.232,14.6v.114h3.662v-.114a17.975,17.975,0,0,0-17.895-18.265,18.209,18.209,0,0,0-13.744,6.258l2.6,2.6a14.57,14.57,0,0,1,11.149-5.19Z" transform="translate(-504.134 -325.388)"/><path class="h" d="M833.042,555.4H829.38a14.6,14.6,0,1,1-25.743-9.526l-2.583-2.6a18.257,18.257,0,1,0,32,12.121Z" transform="translate(-496.642 -335.584)"/><path class="i" d="M670.854,529.66l-.728,3.647a14.3,14.3,0,0,1,8.786,13.539,14.6,14.6,0,1,1-20.45-13.37l-1.622-3.288a18.257,18.257,0,1,0,25.751,16.658A17.963,17.963,0,0,0,670.854,529.66Z" transform="translate(-405.429 -327.328)"/><path class="h" d="M682.072,530.052a12.751,12.751,0,0,1,5.084,1.055l.729-3.643a16.106,16.106,0,0,0-5.813-1.075A18.182,18.182,0,0,0,674.589,528l1.639,3.28A14.448,14.448,0,0,1,682.072,530.052Z" transform="translate(-422.715 -325.346)"/></g></svg>